<?xml version="1.0" encoding="utf-8"?>
<!-- Generator: Adobe Illustrator 22.1.0, SVG Export Plug-In . SVG Version: 6.00 Build 0)  -->
<svg version="1.1" id="Слой_1" xmlns="http://www.w3.org/2000/svg" xmlns:xlink="http://www.w3.org/1999/xlink" x="0px" y="0px"
	 viewBox="0 0 210 75" style="enable-background:new 0 0 210 75;" xml:space="preserve">
<style type="text/css">
	.st0{fill:#333333;}
	.st1{fill:#1A1A1A;}
	.st2{fill:url(#SVGID_1_);}
	.st3{fill:url(#SVGID_2_);}
	.st4{fill:url(#SVGID_3_);}
	.st5{fill:#0071BC;}
</style>
<g>
	<g>
		<g>
			<path class="st0" d="M32.1,5.5c-3.6,2.1-7.1,4.4-10.6,6.9c-0.4,0.3-0.9,0.3-1.4,0.1c-2-0.9-4-1.9-5.9-2.8c-0.9-0.5-1-1.7-0.2-2.3
				c3.2-2.4,6.5-4.7,9.8-6.8c0.4-0.2,0.8-0.3,1.3-0.1c2.2,0.9,4.4,1.7,6.8,2.6C33,3.5,33.1,4.9,32.1,5.5z"/>
		</g>
		<g>
			<path class="st1" d="M29,22.1c-4.4,3.1-8.5,6.5-12.2,10.1c-0.5,0.5-1.3,0.5-1.8,0.1c-2.2-1.7-4.2-3.3-6.1-4.8
				c-0.7-0.5-0.7-1.5-0.1-2.1c3.3-3.2,6.9-6.3,10.7-9.3c0.4-0.3,1-0.4,1.4-0.1c2.4,1.2,5.1,2.4,7.9,3.8C29.7,20.2,29.8,21.5,29,22.1
				z"/>
		</g>
		<linearGradient id="SVGID_1_" gradientUnits="userSpaceOnUse" x1="43.0693" y1="12.3118" x2="60.0275" y2="25.0305">
			<stop  offset="0" style="stop-color:#29ABE2"/>
			<stop  offset="8.519983e-02" style="stop-color:#25A6DF"/>
			<stop  offset="1" style="stop-color:#0071BC"/>
		</linearGradient>
		<path class="st2" d="M66.9,20.9c-4.1,2-8.6,4.2-13.4,6.9c-0.4,0.2-0.9,0.2-1.4,0c-4.7-2.6-9.2-4.9-13.3-6.8
			c-1-0.5-1.1-1.9-0.1-2.4c4.6-2.8,9.2-5.1,13.6-7.1c0.4-0.2,0.8-0.2,1.1,0c4.4,2,8.9,4.3,13.5,7C67.9,19,67.9,20.4,66.9,20.9z"/>
		<linearGradient id="SVGID_2_" gradientUnits="userSpaceOnUse" x1="8.2465" y1="43.7032" x2="21.372" y2="53.5941">
			<stop  offset="0" style="stop-color:#29ABE2"/>
			<stop  offset="8.519983e-02" style="stop-color:#25A6DF"/>
			<stop  offset="1" style="stop-color:#0071BC"/>
		</linearGradient>
		<path class="st3" d="M25.7,47.8c-4.2,3.9-7.9,7.7-11.1,11.2c-0.6,0.6-1.5,0.6-2,0c-2.9-3.2-5.4-6.2-7.7-9c-0.4-0.5-0.4-1.2,0-1.8
			c2.8-3.4,5.9-7,9.5-10.6c0.5-0.5,1.3-0.5,1.9-0.1c2.8,2.4,6,5.1,9.5,8.1C26.3,46.3,26.3,47.2,25.7,47.8z"/>
		<path class="st1" d="M47.5,11.3c-4.2,2-8.4,4.4-12.6,7.1c-0.4,0.2-0.9,0.3-1.3,0.1c-3-1.4-5.8-2.6-8.4-3.8c-1-0.4-1.1-1.8-0.2-2.4
			c3.8-2.6,7.7-5,11.7-7.1c0.4-0.2,0.8-0.2,1.1-0.1c3.1,1.1,6.3,2.3,9.7,3.7C48.5,9.2,48.6,10.7,47.5,11.3z"/>
		<linearGradient id="SVGID_3_" gradientUnits="userSpaceOnUse" x1="29.2867" y1="29.2593" x2="46.7211" y2="42.3351">
			<stop  offset="0" style="stop-color:#29ABE2"/>
			<stop  offset="8.519983e-02" style="stop-color:#25A6DF"/>
			<stop  offset="1" style="stop-color:#0071BC"/>
		</linearGradient>
		<path class="st4" d="M47.4,31.3c-5.6,3.5-11.2,7.5-16.3,11.9c-0.5,0.4-1.2,0.4-1.7,0c-3.7-2.9-7.1-5.6-10.2-7.9
			c-0.7-0.5-0.7-1.5-0.1-2.1c4.2-3.9,8.9-7.6,13.8-10.9c0.4-0.3,0.9-0.3,1.4-0.1c4,2,8.3,4.2,13,6.8C48.3,29.5,48.3,30.8,47.4,31.3z
			"/>
	</g>
	<g>
		<path class="st1" d="M65.1,57.8h-5.5V40.8h-6.4v-4.3h18.3v4.3h-6.4V57.8z"/>
		<path class="st1" d="M82.6,46.1c-1.3,0-2.6,0.3-4,0.9v10.8h-5.3V41.7H78l0.3,2c1.7-1.5,3.6-2.3,5.5-2.3h1.4v4.7H82.6z"/>
		<path class="st1" d="M88.1,42c3.7-0.4,7.1-0.6,10.1-0.6c1.4,0,2.5,0.4,3.3,1.3c0.8,0.8,1.3,1.9,1.3,3.3v11.9H98l-0.3-1.5
			c-1,0.6-1.9,1.1-2.9,1.4c-1,0.3-1.9,0.4-2.5,0.4h-1.1c-1.4,0-2.5-0.4-3.3-1.3c-0.8-0.8-1.3-1.9-1.3-3.3v-1.4
			c0-1.4,0.4-2.5,1.3-3.3c0.8-0.8,1.9-1.3,3.3-1.3h6.3v-1.2c0-0.3-0.1-0.6-0.3-0.8c-0.2-0.2-0.5-0.3-0.8-0.3c-1.3,0-2.8,0.1-4.4,0.2
			c-1.6,0.1-2.9,0.2-3.9,0.3V42z M93.7,53.9c1.1,0,2.3-0.2,3.7-0.6v-1.8H93c-0.3,0-0.6,0.1-0.8,0.3c-0.2,0.2-0.3,0.5-0.3,0.8v0.3
			c0,0.3,0.1,0.6,0.3,0.8c0.2,0.2,0.5,0.3,0.8,0.3H93.7z"/>
		<path class="st1" d="M119.8,57.5c-3.8,0.4-7.2,0.6-10.1,0.6c-1.4,0-2.5-0.4-3.3-1.3c-0.8-0.8-1.3-1.9-1.3-3.3v-7
			c0-1.5,0.4-2.7,1.3-3.6c0.9-0.9,2.1-1.3,3.6-1.3h9.8v4.1h-8.1c-0.8,0-1.2,0.4-1.2,1.2V53c0,0.3,0.1,0.6,0.3,0.8
			c0.2,0.2,0.5,0.3,0.8,0.3c1.8,0,4.6-0.2,8.2-0.5V57.5z"/>
		<path class="st1" d="M127.6,51.4v6.4h-5.3V36.5h5.3v10.8h2.4l3.4-5.6h5.6l-4.6,7.8l4.6,8.4h-5.6l-3.5-6.4H127.6z"/>
		<path class="st5" d="M151.8,57.8c-2,0.2-3.9,0.3-5.8,0.3c-1.4,0-2.5-0.4-3.3-1.3c-0.8-0.8-1.3-1.9-1.3-3.3v-7.8h-1.8v-4.1h1.8
			l0.6-3.7h4.7v3.7h3.8v4.1h-3.8v7c0,0.3,0.1,0.6,0.3,0.8c0.2,0.2,0.5,0.3,0.8,0.3h4V57.8z"/>
		<path class="st5" d="M168.9,57.5c-3.9,0.4-7.5,0.6-10.7,0.6c-1.4,0-2.5-0.4-3.3-1.3c-0.8-0.8-1.3-1.9-1.3-3.3v-7.3
			c0-1.5,0.4-2.7,1.3-3.6c0.9-0.9,2.1-1.3,3.6-1.3h6.1c1.5,0,2.7,0.4,3.6,1.3c0.9,0.9,1.3,2.1,1.3,3.6v5.6H159v1.2
			c0,0.3,0.1,0.6,0.3,0.8c0.2,0.2,0.5,0.3,0.8,0.3c2,0,5-0.2,8.8-0.5V57.5z M160.2,45.2c-0.8,0-1.2,0.4-1.2,1.2v1.7h5.2v-1.7
			c0-0.8-0.4-1.2-1.2-1.2H160.2z"/>
		<path class="st5" d="M186.6,57.5c-3.8,0.4-7.2,0.6-10.1,0.6c-1.4,0-2.5-0.4-3.3-1.3c-0.8-0.8-1.3-1.9-1.3-3.3v-7
			c0-1.5,0.4-2.7,1.3-3.6c0.9-0.9,2.1-1.3,3.6-1.3h9.8v4.1h-8.1c-0.8,0-1.2,0.4-1.2,1.2V53c0,0.3,0.1,0.6,0.3,0.8
			c0.2,0.2,0.5,0.3,0.8,0.3c1.8,0,4.6-0.2,8.2-0.5V57.5z"/>
		<path class="st5" d="M194.4,42c2-0.4,3.7-0.6,5.2-0.6h1.4c1.4,0,2.5,0.4,3.3,1.3c0.8,0.8,1.3,1.9,1.3,3.3v11.9h-5.3V46.6
			c0-0.3-0.1-0.6-0.3-0.8c-0.2-0.2-0.5-0.3-0.8-0.3H198c-0.8,0-1.5,0-2.1,0.1c-0.6,0.1-1.2,0.1-1.5,0.2v12H189V36.5h5.3V42z"/>
	</g>
	<g>
		<path class="st1" d="M117,64h4.8c0.8,0,1.4,0.2,1.7,0.5c0.4,0.4,0.6,0.9,0.6,1.6c0,0.5-0.1,0.9-0.3,1.2c-0.2,0.3-0.5,0.5-0.8,0.6
			c0.7,0.2,1.1,0.6,1.3,1.3c0.1,0.2,0.1,0.5,0.1,0.9c0,0.8-0.2,1.4-0.6,1.7c-0.4,0.4-0.9,0.6-1.7,0.6H117V64z M121.9,66.4
			c0-0.5-0.2-0.7-0.7-0.7h-2v1.7h2c0.5,0,0.7-0.2,0.7-0.7V66.4z M122.3,69.8c0-0.5-0.2-0.7-0.7-0.7h-2.4v1.7h2.4
			c0.5,0,0.7-0.2,0.7-0.7V69.8z"/>
		<path class="st1" d="M127.1,74.6c-0.4,0-0.9,0-1.6-0.1v-1.6h1.1c0.3,0,0.5-0.1,0.6-0.3c0.1-0.2,0.1-0.4-0.1-0.7l-2.5-5.9h2.2
			l1.5,4.1l1.3-4.1h2.2l-2.4,6.6c-0.2,0.6-0.5,1.1-0.9,1.4C128.3,74.5,127.8,74.6,127.1,74.6z"/>
		<path class="st1" d="M143.4,72.5h-2.3l-2.9-5.1v5.1h-2.2V64h2.3l2.9,5.1V64h2.2V72.5z"/>
		<path class="st1" d="M147.7,70.8c0.4,0,0.9-0.1,1.4-0.2v-4.5h2.1v6.4h-1.9l-0.1-0.6c-0.4,0.2-0.8,0.4-1.2,0.5
			c-0.4,0.1-0.7,0.2-1,0.2h-0.5c-0.5,0-1-0.2-1.3-0.5c-0.3-0.3-0.5-0.8-0.5-1.3v-4.7h2.1v4.3c0,0.1,0,0.2,0.1,0.3
			c0.1,0.1,0.2,0.1,0.3,0.1H147.7z"/>
		<path class="st1" d="M156.7,72.5h-2.2v-6.8H152V64h7.2v1.7h-2.5V72.5z"/>
		<path class="st1" d="M165.8,72.3c-1.6,0.2-3,0.2-4.2,0.2c-0.5,0-1-0.2-1.3-0.5c-0.3-0.3-0.5-0.8-0.5-1.3v-2.9
			c0-0.6,0.2-1.1,0.5-1.4c0.3-0.3,0.8-0.5,1.4-0.5h2.4c0.6,0,1.1,0.2,1.4,0.5c0.3,0.3,0.5,0.8,0.5,1.4v2.2h-4.2v0.5
			c0,0.1,0,0.2,0.1,0.3c0.1,0.1,0.2,0.1,0.3,0.1c0.8,0,2-0.1,3.5-0.2V72.3z M162.4,67.5c-0.3,0-0.5,0.2-0.5,0.5v0.7h2v-0.7
			c0-0.3-0.2-0.5-0.5-0.5H162.4z"/>
		<path class="st1" d="M172.8,72.3c-1.5,0.2-2.8,0.2-4,0.2c-0.5,0-1-0.2-1.3-0.5c-0.3-0.3-0.5-0.8-0.5-1.3V68c0-0.6,0.2-1.1,0.5-1.4
			c0.3-0.3,0.8-0.5,1.4-0.5h3.9v1.6h-3.2c-0.3,0-0.5,0.2-0.5,0.5v2.4c0,0.1,0,0.2,0.1,0.3c0.1,0.1,0.2,0.1,0.3,0.1
			c0.7,0,1.8-0.1,3.3-0.2V72.3z"/>
		<path class="st1" d="M175.9,66.2c0.8-0.2,1.5-0.2,2-0.2h0.5c0.5,0,1,0.2,1.3,0.5c0.3,0.3,0.5,0.8,0.5,1.3v4.7h-2.1V68
			c0-0.1,0-0.2-0.1-0.3c-0.1-0.1-0.2-0.1-0.3-0.1h-0.4c-0.3,0-0.6,0-0.8,0c-0.3,0-0.5,0.1-0.6,0.1v4.8h-2.1V64h2.1V66.2z"/>
		<path class="st1" d="M188.7,72.3c-1.9,0.2-3.6,0.3-5.2,0.3c-0.8,0-1.4-0.2-1.7-0.6c-0.4-0.4-0.6-0.9-0.6-1.7v-3.9
			c0-0.8,0.2-1.5,0.6-1.8c0.4-0.4,1-0.6,1.8-0.6h4.3v1.7h-3.9c-0.5,0-0.7,0.2-0.7,0.7v3.9c0,0.2,0.1,0.3,0.2,0.4
			c0.1,0.1,0.3,0.2,0.4,0.2c0.9,0,1.8,0,2.5-0.1v-1.7H185v-1.4h3.7V72.3z"/>
		<path class="st1" d="M189.9,64h5.1c0.8,0,1.5,0.2,1.8,0.6c0.4,0.4,0.6,1,0.6,1.8v1.2c0,0.8-0.2,1.5-0.6,1.8
			c-0.4,0.4-1,0.6-1.8,0.6h-2.9v2.4h-2.2V64z M195.3,66.4c0-0.5-0.2-0.7-0.7-0.7h-2.4v2.7h2.4c0.5,0,0.7-0.2,0.7-0.7V66.4z"/>
		<path class="st1" d="M198.3,70.7c2.2,0.1,3.7,0.2,4.5,0.2c0.2,0,0.3-0.1,0.4-0.2c0.1-0.1,0.2-0.3,0.2-0.4v-1.1h-2.8
			c-0.8,0-1.5-0.2-1.8-0.6s-0.6-1-0.6-1.8v-0.4c0-0.8,0.2-1.5,0.6-1.8c0.4-0.4,1-0.6,1.8-0.6h4.2v1.7H201c-0.5,0-0.7,0.2-0.7,0.7
			v0.2c0,0.5,0.2,0.7,0.7,0.7h2.2c0.8,0,1.4,0.2,1.7,0.6c0.4,0.4,0.6,0.9,0.6,1.7v0.6c0,0.8-0.2,1.4-0.6,1.7
			c-0.4,0.4-0.9,0.6-1.7,0.6c-0.4,0-0.8,0-1.3,0l-1.1,0c-0.8,0-1.7-0.1-2.5-0.2V70.7z"/>
	</g>
</g>
</svg>
